<svg xmlns="http://www.w3.org/2000/svg" viewBox="0 0 1600 900"><path fill="#09f" d="M0 0h1600v900H0z"/><defs><radialGradient id="a" cx="800" cy="371" r="70%" gradientUnits="userSpaceOnUse"><stop offset="0" stop-color="#09f"/><stop offset="1" stop-color="#04C"/></radialGradient><radialGradient id="b" cx="800" cy="371" r="60%" gradientUnits="userSpaceOnUse"><stop offset="0" stop-color="#0EF"/><stop offset="1" stop-color="#0EF" stop-opacity="0"/></radialGradient></defs><path fill="url(#a)" d="M0 0h1600v900H0z"/><g fill="none" stroke="#03E" stroke-width="10" stroke-miterlimit="10" stroke-opacity=".5"><path d="M2277.4 1152L800-1407-677.4 1152z"/><path d="M800-1372.9L-648.8 1136.5h2897.6z"/><path d="M800-1338.8L-620.2 1121.1h2840.4z"/><path d="M800-1304.7L-591.6 1105.6h2783.2z"/><path d="M800-1270.6L-563 1090.2h2726z"/><path d="M800-1236.5L-534.4 1074.7h2668.8z"/><path d="M800-1202.4L-505.8 1059.3h2611.6z"/><path d="M800-1168.3L-477.2 1043.8h2554.4z"/><path d="M800-1134.2L-448.6 1028.4h2497.2z"/><path d="M800-1100.1l-1220 2113h2440z"/><path d="M800-1066L-391.4 997.5h2382.8z"/><path d="M800-1031.9L-362.7 982h2325.4z"/><path d="M800-997.8L-334.1 966.6h2268.2z"/><path d="M800-963.7L-305.5 951.1h2211z"/><path d="M800-929.6L-276.9 935.7h2153.8z"/><path d="M800-895.5L-248.3 920.2h2096.6z"/><path d="M800-861.4L-219.7 904.7h2039.4z"/><path d="M800-827.3L-191.1 889.3h1982.2z"/><path d="M800-793.2l-962.5 1667h1925z"/><path d="M800-759.1L-133.9 858.4h1867.8z"/><path d="M800-725L-105.3 842.9h1810.6z"/><path d="M800-690.9L-76.7 827.5h1753.4z"/><path d="M800-656.8L-48.1 812h1696.2z"/><path d="M800-622.7L-19.4 796.6h1638.8z"/><path d="M800-588.6L9.2 781.1h1581.6z"/><path d="M800-554.5L37.8 765.7h1524.4z"/><path d="M800-520.5L66.4 750.2h1467.2z"/><path d="M800-486.4L95 734.8h1410z"/><path d="M800-452.3L123.6 719.3h1352.8z"/><path d="M800-418.2L152.2 703.9h1295.6z"/><path d="M800-384.1L180.8 688.4h1238.4z"/><path d="M800-350L209.4 673h1181.2z"/><path d="M800-315.9L238 657.5h1124z"/><path d="M800-281.8L266.6 642h1066.8z"/><path d="M800-247.7L295.2 626.6h1009.6z"/><path d="M800-213.6L323.9 611.1h952.2z"/><path d="M800-179.5L352.5 595.7h895z"/><path d="M800-145.4L381.1 580.2h837.8z"/><path d="M800-111.3L409.7 564.8h780.6z"/><path d="M800-77.2L438.3 549.3h723.4z"/><path d="M800-43.1l-333.1 577h666.2z"/><path d="M800-9L495.5 518.4h609z"/><path d="M800 25.1L524.1 503h551.8z"/><path d="M800 59.2L552.7 487.5h494.6z"/><path d="M800 93.3L581.3 472.1h437.4z"/><path d="M800 127.4L609.9 456.6h380.2z"/><path d="M800 161.5L638.5 441.2h323z"/><path d="M800 195.6L667.2 425.7h265.6z"/><path d="M800 229.7L695.8 410.2h208.4z"/><path d="M800 263.8l-75.6 131h151.2z"/><path d="M800 297.9l-47 81.4h94z"/><path d="M800 332l-18.4 31.9h36.8z"/></g><path fill-opacity=".5" fill="url(#b)" d="M0 0h1600v900H0z"/></svg>